%TF.GenerationSoftware,KiCad,Pcbnew,5.1.7+dfsg1-1*%
%TF.CreationDate,2020-10-30T20:21:54-04:00*%
%TF.ProjectId,fpga-game,66706761-2d67-4616-9d65-2e6b69636164,rev?*%
%TF.SameCoordinates,Original*%
%TF.FileFunction,Soldermask,Top*%
%TF.FilePolarity,Negative*%
%FSLAX46Y46*%
G04 Gerber Fmt 4.6, Leading zero omitted, Abs format (unit mm)*
G04 Created by KiCad (PCBNEW 5.1.7+dfsg1-1) date 2020-10-30 20:21:54*
%MOMM*%
%LPD*%
G01*
G04 APERTURE LIST*
%ADD10O,1.801600X1.801600*%
G04 APERTURE END LIST*
%TO.C,J1*%
G36*
G01*
X154126200Y-97250000D02*
X154126200Y-95550000D01*
G75*
G02*
X154177000Y-95499200I50800J0D01*
G01*
X155877000Y-95499200D01*
G75*
G02*
X155927800Y-95550000I0J-50800D01*
G01*
X155927800Y-97250000D01*
G75*
G02*
X155877000Y-97300800I-50800J0D01*
G01*
X154177000Y-97300800D01*
G75*
G02*
X154126200Y-97250000I0J50800D01*
G01*
G37*
D10*
X155027000Y-98940000D03*
X155027000Y-101480000D03*
X155027000Y-104020000D03*
%TD*%
%TO.C,J2*%
X166227000Y-104020000D03*
X166227000Y-101480000D03*
X166227000Y-98940000D03*
G36*
G01*
X165326200Y-97250000D02*
X165326200Y-95550000D01*
G75*
G02*
X165377000Y-95499200I50800J0D01*
G01*
X167077000Y-95499200D01*
G75*
G02*
X167127800Y-95550000I0J-50800D01*
G01*
X167127800Y-97250000D01*
G75*
G02*
X167077000Y-97300800I-50800J0D01*
G01*
X165377000Y-97300800D01*
G75*
G02*
X165326200Y-97250000I0J50800D01*
G01*
G37*
%TD*%
%TO.C,U1*%
G36*
G01*
X157126200Y-97870400D02*
X157126200Y-97519600D01*
G75*
G02*
X157301600Y-97344200I175400J0D01*
G01*
X159002400Y-97344200D01*
G75*
G02*
X159177800Y-97519600I0J-175400D01*
G01*
X159177800Y-97870400D01*
G75*
G02*
X159002400Y-98045800I-175400J0D01*
G01*
X157301600Y-98045800D01*
G75*
G02*
X157126200Y-97870400I0J175400D01*
G01*
G37*
G36*
G01*
X157126200Y-99140400D02*
X157126200Y-98789600D01*
G75*
G02*
X157301600Y-98614200I175400J0D01*
G01*
X159002400Y-98614200D01*
G75*
G02*
X159177800Y-98789600I0J-175400D01*
G01*
X159177800Y-99140400D01*
G75*
G02*
X159002400Y-99315800I-175400J0D01*
G01*
X157301600Y-99315800D01*
G75*
G02*
X157126200Y-99140400I0J175400D01*
G01*
G37*
G36*
G01*
X157126200Y-100410400D02*
X157126200Y-100059600D01*
G75*
G02*
X157301600Y-99884200I175400J0D01*
G01*
X159002400Y-99884200D01*
G75*
G02*
X159177800Y-100059600I0J-175400D01*
G01*
X159177800Y-100410400D01*
G75*
G02*
X159002400Y-100585800I-175400J0D01*
G01*
X157301600Y-100585800D01*
G75*
G02*
X157126200Y-100410400I0J175400D01*
G01*
G37*
G36*
G01*
X157126200Y-101680400D02*
X157126200Y-101329600D01*
G75*
G02*
X157301600Y-101154200I175400J0D01*
G01*
X159002400Y-101154200D01*
G75*
G02*
X159177800Y-101329600I0J-175400D01*
G01*
X159177800Y-101680400D01*
G75*
G02*
X159002400Y-101855800I-175400J0D01*
G01*
X157301600Y-101855800D01*
G75*
G02*
X157126200Y-101680400I0J175400D01*
G01*
G37*
G36*
G01*
X162076200Y-101680400D02*
X162076200Y-101329600D01*
G75*
G02*
X162251600Y-101154200I175400J0D01*
G01*
X163952400Y-101154200D01*
G75*
G02*
X164127800Y-101329600I0J-175400D01*
G01*
X164127800Y-101680400D01*
G75*
G02*
X163952400Y-101855800I-175400J0D01*
G01*
X162251600Y-101855800D01*
G75*
G02*
X162076200Y-101680400I0J175400D01*
G01*
G37*
G36*
G01*
X162076200Y-100410400D02*
X162076200Y-100059600D01*
G75*
G02*
X162251600Y-99884200I175400J0D01*
G01*
X163952400Y-99884200D01*
G75*
G02*
X164127800Y-100059600I0J-175400D01*
G01*
X164127800Y-100410400D01*
G75*
G02*
X163952400Y-100585800I-175400J0D01*
G01*
X162251600Y-100585800D01*
G75*
G02*
X162076200Y-100410400I0J175400D01*
G01*
G37*
G36*
G01*
X162076200Y-99140400D02*
X162076200Y-98789600D01*
G75*
G02*
X162251600Y-98614200I175400J0D01*
G01*
X163952400Y-98614200D01*
G75*
G02*
X164127800Y-98789600I0J-175400D01*
G01*
X164127800Y-99140400D01*
G75*
G02*
X163952400Y-99315800I-175400J0D01*
G01*
X162251600Y-99315800D01*
G75*
G02*
X162076200Y-99140400I0J175400D01*
G01*
G37*
G36*
G01*
X162076200Y-97870400D02*
X162076200Y-97519600D01*
G75*
G02*
X162251600Y-97344200I175400J0D01*
G01*
X163952400Y-97344200D01*
G75*
G02*
X164127800Y-97519600I0J-175400D01*
G01*
X164127800Y-97870400D01*
G75*
G02*
X163952400Y-98045800I-175400J0D01*
G01*
X162251600Y-98045800D01*
G75*
G02*
X162076200Y-97870400I0J175400D01*
G01*
G37*
%TD*%
M02*
