%TF.GenerationSoftware,KiCad,Pcbnew,5.1.7+dfsg1-1*%
%TF.CreationDate,2020-10-30T20:21:54-04:00*%
%TF.ProjectId,fpga-game,66706761-2d67-4616-9d65-2e6b69636164,rev?*%
%TF.SameCoordinates,Original*%
%TF.FileFunction,Copper,L2,Bot*%
%TF.FilePolarity,Positive*%
%FSLAX46Y46*%
G04 Gerber Fmt 4.6, Leading zero omitted, Abs format (unit mm)*
G04 Created by KiCad (PCBNEW 5.1.7+dfsg1-1) date 2020-10-30 20:21:54*
%MOMM*%
%LPD*%
G01*
G04 APERTURE LIST*
%TA.AperFunction,ComponentPad*%
%ADD10R,1.700000X1.700000*%
%TD*%
%TA.AperFunction,ComponentPad*%
%ADD11O,1.700000X1.700000*%
%TD*%
%TA.AperFunction,ViaPad*%
%ADD12C,0.762000*%
%TD*%
%TA.AperFunction,Conductor*%
%ADD13C,0.254000*%
%TD*%
%TA.AperFunction,NonConductor*%
%ADD14C,0.254000*%
%TD*%
%TA.AperFunction,NonConductor*%
%ADD15C,0.100000*%
%TD*%
G04 APERTURE END LIST*
D10*
%TO.P,J1,1*%
%TO.N,Net-(J1-Pad1)*%
X155027000Y-96400000D03*
D11*
%TO.P,J1,2*%
%TO.N,Net-(J1-Pad2)*%
X155027000Y-98940000D03*
%TO.P,J1,3*%
%TO.N,Net-(J1-Pad3)*%
X155027000Y-101480000D03*
%TO.P,J1,4*%
%TO.N,Net-(J1-Pad4)*%
X155027000Y-104020000D03*
%TD*%
%TO.P,J2,4*%
%TO.N,Net-(J2-Pad4)*%
X166227000Y-104020000D03*
%TO.P,J2,3*%
%TO.N,Net-(J2-Pad3)*%
X166227000Y-101480000D03*
%TO.P,J2,2*%
%TO.N,Net-(J2-Pad2)*%
X166227000Y-98940000D03*
D10*
%TO.P,J2,1*%
%TO.N,Net-(J2-Pad1)*%
X166227000Y-96400000D03*
%TD*%
D12*
%TO.N,Net-(J1-Pad3)*%
X160020000Y-95250000D03*
%TO.N,Net-(J2-Pad4)*%
X162560000Y-95250000D03*
%TD*%
D13*
%TO.N,Net-(J1-Pad3)*%
X160020000Y-95250000D02*
X158750000Y-96520000D01*
X158750000Y-97757000D02*
X155027000Y-101480000D01*
X158750000Y-96520000D02*
X158750000Y-97757000D01*
%TO.N,Net-(J2-Pad4)*%
X162560000Y-100353000D02*
X166227000Y-104020000D01*
X162560000Y-95250000D02*
X162560000Y-100353000D01*
%TD*%
D14*
X170548301Y-106032300D02*
X151015700Y-106032300D01*
X151015700Y-95550000D01*
X153538928Y-95550000D01*
X153538928Y-97250000D01*
X153551188Y-97374482D01*
X153587498Y-97494180D01*
X153646463Y-97604494D01*
X153725815Y-97701185D01*
X153822506Y-97780537D01*
X153932820Y-97839502D01*
X154005380Y-97861513D01*
X153873525Y-97993368D01*
X153711010Y-98236589D01*
X153599068Y-98506842D01*
X153542000Y-98793740D01*
X153542000Y-99086260D01*
X153599068Y-99373158D01*
X153711010Y-99643411D01*
X153873525Y-99886632D01*
X154080368Y-100093475D01*
X154254760Y-100210000D01*
X154080368Y-100326525D01*
X153873525Y-100533368D01*
X153711010Y-100776589D01*
X153599068Y-101046842D01*
X153542000Y-101333740D01*
X153542000Y-101626260D01*
X153599068Y-101913158D01*
X153711010Y-102183411D01*
X153873525Y-102426632D01*
X154080368Y-102633475D01*
X154254760Y-102750000D01*
X154080368Y-102866525D01*
X153873525Y-103073368D01*
X153711010Y-103316589D01*
X153599068Y-103586842D01*
X153542000Y-103873740D01*
X153542000Y-104166260D01*
X153599068Y-104453158D01*
X153711010Y-104723411D01*
X153873525Y-104966632D01*
X154080368Y-105173475D01*
X154323589Y-105335990D01*
X154593842Y-105447932D01*
X154880740Y-105505000D01*
X155173260Y-105505000D01*
X155460158Y-105447932D01*
X155730411Y-105335990D01*
X155973632Y-105173475D01*
X156180475Y-104966632D01*
X156342990Y-104723411D01*
X156454932Y-104453158D01*
X156512000Y-104166260D01*
X156512000Y-103873740D01*
X156454932Y-103586842D01*
X156342990Y-103316589D01*
X156180475Y-103073368D01*
X155973632Y-102866525D01*
X155799240Y-102750000D01*
X155973632Y-102633475D01*
X156180475Y-102426632D01*
X156342990Y-102183411D01*
X156454932Y-101913158D01*
X156512000Y-101626260D01*
X156512000Y-101333740D01*
X156468679Y-101115951D01*
X159262352Y-98322279D01*
X159291422Y-98298422D01*
X159386645Y-98182392D01*
X159457402Y-98050015D01*
X159500974Y-97906378D01*
X159512000Y-97794426D01*
X159512000Y-97794424D01*
X159515686Y-97757001D01*
X159512000Y-97719578D01*
X159512000Y-96835630D01*
X160081631Y-96266000D01*
X160120067Y-96266000D01*
X160316356Y-96226956D01*
X160501256Y-96150368D01*
X160667662Y-96039179D01*
X160809179Y-95897662D01*
X160920368Y-95731256D01*
X160996956Y-95546356D01*
X161036000Y-95350067D01*
X161036000Y-95149933D01*
X161544000Y-95149933D01*
X161544000Y-95350067D01*
X161583044Y-95546356D01*
X161659632Y-95731256D01*
X161770821Y-95897662D01*
X161798000Y-95924841D01*
X161798001Y-100315567D01*
X161794314Y-100353000D01*
X161809027Y-100502378D01*
X161852599Y-100646015D01*
X161923355Y-100778392D01*
X161994721Y-100865351D01*
X162018579Y-100894422D01*
X162047649Y-100918279D01*
X164785321Y-103655952D01*
X164742000Y-103873740D01*
X164742000Y-104166260D01*
X164799068Y-104453158D01*
X164911010Y-104723411D01*
X165073525Y-104966632D01*
X165280368Y-105173475D01*
X165523589Y-105335990D01*
X165793842Y-105447932D01*
X166080740Y-105505000D01*
X166373260Y-105505000D01*
X166660158Y-105447932D01*
X166930411Y-105335990D01*
X167173632Y-105173475D01*
X167380475Y-104966632D01*
X167542990Y-104723411D01*
X167654932Y-104453158D01*
X167712000Y-104166260D01*
X167712000Y-103873740D01*
X167654932Y-103586842D01*
X167542990Y-103316589D01*
X167380475Y-103073368D01*
X167173632Y-102866525D01*
X166999240Y-102750000D01*
X167173632Y-102633475D01*
X167380475Y-102426632D01*
X167542990Y-102183411D01*
X167654932Y-101913158D01*
X167712000Y-101626260D01*
X167712000Y-101333740D01*
X167654932Y-101046842D01*
X167542990Y-100776589D01*
X167380475Y-100533368D01*
X167173632Y-100326525D01*
X166999240Y-100210000D01*
X167173632Y-100093475D01*
X167380475Y-99886632D01*
X167542990Y-99643411D01*
X167654932Y-99373158D01*
X167712000Y-99086260D01*
X167712000Y-98793740D01*
X167654932Y-98506842D01*
X167542990Y-98236589D01*
X167380475Y-97993368D01*
X167248620Y-97861513D01*
X167321180Y-97839502D01*
X167431494Y-97780537D01*
X167528185Y-97701185D01*
X167607537Y-97604494D01*
X167666502Y-97494180D01*
X167702812Y-97374482D01*
X167715072Y-97250000D01*
X167715072Y-95550000D01*
X167702812Y-95425518D01*
X167666502Y-95305820D01*
X167607537Y-95195506D01*
X167528185Y-95098815D01*
X167431494Y-95019463D01*
X167321180Y-94960498D01*
X167201482Y-94924188D01*
X167077000Y-94911928D01*
X165377000Y-94911928D01*
X165252518Y-94924188D01*
X165132820Y-94960498D01*
X165022506Y-95019463D01*
X164925815Y-95098815D01*
X164846463Y-95195506D01*
X164787498Y-95305820D01*
X164751188Y-95425518D01*
X164738928Y-95550000D01*
X164738928Y-97250000D01*
X164751188Y-97374482D01*
X164787498Y-97494180D01*
X164846463Y-97604494D01*
X164925815Y-97701185D01*
X165022506Y-97780537D01*
X165132820Y-97839502D01*
X165205380Y-97861513D01*
X165073525Y-97993368D01*
X164911010Y-98236589D01*
X164799068Y-98506842D01*
X164742000Y-98793740D01*
X164742000Y-99086260D01*
X164799068Y-99373158D01*
X164911010Y-99643411D01*
X165073525Y-99886632D01*
X165280368Y-100093475D01*
X165454760Y-100210000D01*
X165280368Y-100326525D01*
X165073525Y-100533368D01*
X164911010Y-100776589D01*
X164799068Y-101046842D01*
X164742000Y-101333740D01*
X164742000Y-101457370D01*
X163322000Y-100037370D01*
X163322000Y-95924841D01*
X163349179Y-95897662D01*
X163460368Y-95731256D01*
X163536956Y-95546356D01*
X163576000Y-95350067D01*
X163576000Y-95149933D01*
X163536956Y-94953644D01*
X163460368Y-94768744D01*
X163349179Y-94602338D01*
X163207662Y-94460821D01*
X163041256Y-94349632D01*
X162856356Y-94273044D01*
X162660067Y-94234000D01*
X162459933Y-94234000D01*
X162263644Y-94273044D01*
X162078744Y-94349632D01*
X161912338Y-94460821D01*
X161770821Y-94602338D01*
X161659632Y-94768744D01*
X161583044Y-94953644D01*
X161544000Y-95149933D01*
X161036000Y-95149933D01*
X160996956Y-94953644D01*
X160920368Y-94768744D01*
X160809179Y-94602338D01*
X160667662Y-94460821D01*
X160501256Y-94349632D01*
X160316356Y-94273044D01*
X160120067Y-94234000D01*
X159919933Y-94234000D01*
X159723644Y-94273044D01*
X159538744Y-94349632D01*
X159372338Y-94460821D01*
X159230821Y-94602338D01*
X159119632Y-94768744D01*
X159043044Y-94953644D01*
X159004000Y-95149933D01*
X159004000Y-95188369D01*
X158237654Y-95954716D01*
X158208578Y-95978578D01*
X158158845Y-96039179D01*
X158113355Y-96094608D01*
X158083551Y-96150368D01*
X158042598Y-96226986D01*
X157999026Y-96370623D01*
X157988000Y-96482574D01*
X157984314Y-96520000D01*
X157988000Y-96557424D01*
X157988001Y-97441368D01*
X156512000Y-98917369D01*
X156512000Y-98793740D01*
X156454932Y-98506842D01*
X156342990Y-98236589D01*
X156180475Y-97993368D01*
X156048620Y-97861513D01*
X156121180Y-97839502D01*
X156231494Y-97780537D01*
X156328185Y-97701185D01*
X156407537Y-97604494D01*
X156466502Y-97494180D01*
X156502812Y-97374482D01*
X156515072Y-97250000D01*
X156515072Y-95550000D01*
X156502812Y-95425518D01*
X156466502Y-95305820D01*
X156407537Y-95195506D01*
X156328185Y-95098815D01*
X156231494Y-95019463D01*
X156121180Y-94960498D01*
X156001482Y-94924188D01*
X155877000Y-94911928D01*
X154177000Y-94911928D01*
X154052518Y-94924188D01*
X153932820Y-94960498D01*
X153822506Y-95019463D01*
X153725815Y-95098815D01*
X153646463Y-95195506D01*
X153587498Y-95305820D01*
X153551188Y-95425518D01*
X153538928Y-95550000D01*
X151015700Y-95550000D01*
X151015700Y-93103700D01*
X170548300Y-93103700D01*
X170548301Y-106032300D01*
%TA.AperFunction,NonConductor*%
D15*
G36*
X170548301Y-106032300D02*
G01*
X151015700Y-106032300D01*
X151015700Y-95550000D01*
X153538928Y-95550000D01*
X153538928Y-97250000D01*
X153551188Y-97374482D01*
X153587498Y-97494180D01*
X153646463Y-97604494D01*
X153725815Y-97701185D01*
X153822506Y-97780537D01*
X153932820Y-97839502D01*
X154005380Y-97861513D01*
X153873525Y-97993368D01*
X153711010Y-98236589D01*
X153599068Y-98506842D01*
X153542000Y-98793740D01*
X153542000Y-99086260D01*
X153599068Y-99373158D01*
X153711010Y-99643411D01*
X153873525Y-99886632D01*
X154080368Y-100093475D01*
X154254760Y-100210000D01*
X154080368Y-100326525D01*
X153873525Y-100533368D01*
X153711010Y-100776589D01*
X153599068Y-101046842D01*
X153542000Y-101333740D01*
X153542000Y-101626260D01*
X153599068Y-101913158D01*
X153711010Y-102183411D01*
X153873525Y-102426632D01*
X154080368Y-102633475D01*
X154254760Y-102750000D01*
X154080368Y-102866525D01*
X153873525Y-103073368D01*
X153711010Y-103316589D01*
X153599068Y-103586842D01*
X153542000Y-103873740D01*
X153542000Y-104166260D01*
X153599068Y-104453158D01*
X153711010Y-104723411D01*
X153873525Y-104966632D01*
X154080368Y-105173475D01*
X154323589Y-105335990D01*
X154593842Y-105447932D01*
X154880740Y-105505000D01*
X155173260Y-105505000D01*
X155460158Y-105447932D01*
X155730411Y-105335990D01*
X155973632Y-105173475D01*
X156180475Y-104966632D01*
X156342990Y-104723411D01*
X156454932Y-104453158D01*
X156512000Y-104166260D01*
X156512000Y-103873740D01*
X156454932Y-103586842D01*
X156342990Y-103316589D01*
X156180475Y-103073368D01*
X155973632Y-102866525D01*
X155799240Y-102750000D01*
X155973632Y-102633475D01*
X156180475Y-102426632D01*
X156342990Y-102183411D01*
X156454932Y-101913158D01*
X156512000Y-101626260D01*
X156512000Y-101333740D01*
X156468679Y-101115951D01*
X159262352Y-98322279D01*
X159291422Y-98298422D01*
X159386645Y-98182392D01*
X159457402Y-98050015D01*
X159500974Y-97906378D01*
X159512000Y-97794426D01*
X159512000Y-97794424D01*
X159515686Y-97757001D01*
X159512000Y-97719578D01*
X159512000Y-96835630D01*
X160081631Y-96266000D01*
X160120067Y-96266000D01*
X160316356Y-96226956D01*
X160501256Y-96150368D01*
X160667662Y-96039179D01*
X160809179Y-95897662D01*
X160920368Y-95731256D01*
X160996956Y-95546356D01*
X161036000Y-95350067D01*
X161036000Y-95149933D01*
X161544000Y-95149933D01*
X161544000Y-95350067D01*
X161583044Y-95546356D01*
X161659632Y-95731256D01*
X161770821Y-95897662D01*
X161798000Y-95924841D01*
X161798001Y-100315567D01*
X161794314Y-100353000D01*
X161809027Y-100502378D01*
X161852599Y-100646015D01*
X161923355Y-100778392D01*
X161994721Y-100865351D01*
X162018579Y-100894422D01*
X162047649Y-100918279D01*
X164785321Y-103655952D01*
X164742000Y-103873740D01*
X164742000Y-104166260D01*
X164799068Y-104453158D01*
X164911010Y-104723411D01*
X165073525Y-104966632D01*
X165280368Y-105173475D01*
X165523589Y-105335990D01*
X165793842Y-105447932D01*
X166080740Y-105505000D01*
X166373260Y-105505000D01*
X166660158Y-105447932D01*
X166930411Y-105335990D01*
X167173632Y-105173475D01*
X167380475Y-104966632D01*
X167542990Y-104723411D01*
X167654932Y-104453158D01*
X167712000Y-104166260D01*
X167712000Y-103873740D01*
X167654932Y-103586842D01*
X167542990Y-103316589D01*
X167380475Y-103073368D01*
X167173632Y-102866525D01*
X166999240Y-102750000D01*
X167173632Y-102633475D01*
X167380475Y-102426632D01*
X167542990Y-102183411D01*
X167654932Y-101913158D01*
X167712000Y-101626260D01*
X167712000Y-101333740D01*
X167654932Y-101046842D01*
X167542990Y-100776589D01*
X167380475Y-100533368D01*
X167173632Y-100326525D01*
X166999240Y-100210000D01*
X167173632Y-100093475D01*
X167380475Y-99886632D01*
X167542990Y-99643411D01*
X167654932Y-99373158D01*
X167712000Y-99086260D01*
X167712000Y-98793740D01*
X167654932Y-98506842D01*
X167542990Y-98236589D01*
X167380475Y-97993368D01*
X167248620Y-97861513D01*
X167321180Y-97839502D01*
X167431494Y-97780537D01*
X167528185Y-97701185D01*
X167607537Y-97604494D01*
X167666502Y-97494180D01*
X167702812Y-97374482D01*
X167715072Y-97250000D01*
X167715072Y-95550000D01*
X167702812Y-95425518D01*
X167666502Y-95305820D01*
X167607537Y-95195506D01*
X167528185Y-95098815D01*
X167431494Y-95019463D01*
X167321180Y-94960498D01*
X167201482Y-94924188D01*
X167077000Y-94911928D01*
X165377000Y-94911928D01*
X165252518Y-94924188D01*
X165132820Y-94960498D01*
X165022506Y-95019463D01*
X164925815Y-95098815D01*
X164846463Y-95195506D01*
X164787498Y-95305820D01*
X164751188Y-95425518D01*
X164738928Y-95550000D01*
X164738928Y-97250000D01*
X164751188Y-97374482D01*
X164787498Y-97494180D01*
X164846463Y-97604494D01*
X164925815Y-97701185D01*
X165022506Y-97780537D01*
X165132820Y-97839502D01*
X165205380Y-97861513D01*
X165073525Y-97993368D01*
X164911010Y-98236589D01*
X164799068Y-98506842D01*
X164742000Y-98793740D01*
X164742000Y-99086260D01*
X164799068Y-99373158D01*
X164911010Y-99643411D01*
X165073525Y-99886632D01*
X165280368Y-100093475D01*
X165454760Y-100210000D01*
X165280368Y-100326525D01*
X165073525Y-100533368D01*
X164911010Y-100776589D01*
X164799068Y-101046842D01*
X164742000Y-101333740D01*
X164742000Y-101457370D01*
X163322000Y-100037370D01*
X163322000Y-95924841D01*
X163349179Y-95897662D01*
X163460368Y-95731256D01*
X163536956Y-95546356D01*
X163576000Y-95350067D01*
X163576000Y-95149933D01*
X163536956Y-94953644D01*
X163460368Y-94768744D01*
X163349179Y-94602338D01*
X163207662Y-94460821D01*
X163041256Y-94349632D01*
X162856356Y-94273044D01*
X162660067Y-94234000D01*
X162459933Y-94234000D01*
X162263644Y-94273044D01*
X162078744Y-94349632D01*
X161912338Y-94460821D01*
X161770821Y-94602338D01*
X161659632Y-94768744D01*
X161583044Y-94953644D01*
X161544000Y-95149933D01*
X161036000Y-95149933D01*
X160996956Y-94953644D01*
X160920368Y-94768744D01*
X160809179Y-94602338D01*
X160667662Y-94460821D01*
X160501256Y-94349632D01*
X160316356Y-94273044D01*
X160120067Y-94234000D01*
X159919933Y-94234000D01*
X159723644Y-94273044D01*
X159538744Y-94349632D01*
X159372338Y-94460821D01*
X159230821Y-94602338D01*
X159119632Y-94768744D01*
X159043044Y-94953644D01*
X159004000Y-95149933D01*
X159004000Y-95188369D01*
X158237654Y-95954716D01*
X158208578Y-95978578D01*
X158158845Y-96039179D01*
X158113355Y-96094608D01*
X158083551Y-96150368D01*
X158042598Y-96226986D01*
X157999026Y-96370623D01*
X157988000Y-96482574D01*
X157984314Y-96520000D01*
X157988000Y-96557424D01*
X157988001Y-97441368D01*
X156512000Y-98917369D01*
X156512000Y-98793740D01*
X156454932Y-98506842D01*
X156342990Y-98236589D01*
X156180475Y-97993368D01*
X156048620Y-97861513D01*
X156121180Y-97839502D01*
X156231494Y-97780537D01*
X156328185Y-97701185D01*
X156407537Y-97604494D01*
X156466502Y-97494180D01*
X156502812Y-97374482D01*
X156515072Y-97250000D01*
X156515072Y-95550000D01*
X156502812Y-95425518D01*
X156466502Y-95305820D01*
X156407537Y-95195506D01*
X156328185Y-95098815D01*
X156231494Y-95019463D01*
X156121180Y-94960498D01*
X156001482Y-94924188D01*
X155877000Y-94911928D01*
X154177000Y-94911928D01*
X154052518Y-94924188D01*
X153932820Y-94960498D01*
X153822506Y-95019463D01*
X153725815Y-95098815D01*
X153646463Y-95195506D01*
X153587498Y-95305820D01*
X153551188Y-95425518D01*
X153538928Y-95550000D01*
X151015700Y-95550000D01*
X151015700Y-93103700D01*
X170548300Y-93103700D01*
X170548301Y-106032300D01*
G37*
%TD.AperFunction*%
M02*
